<?xml version="1.0" standalone="no"?>
<!DOCTYPE svg PUBLIC "-//W3C//DTD SVG 20010904//EN"
 "http://www.w3.org/TR/2001/REC-SVG-20010904/DTD/svg10.dtd">
<svg version="1.0" xmlns="http://www.w3.org/2000/svg"
 width="768.000000pt" height="768.000000pt" viewBox="0 0 768.000000 768.000000"
 preserveAspectRatio="xMidYMid meet">
<metadata>
Created by potrace 1.14, written by Peter Selinger 2001-2017
</metadata>
<g transform="translate(0.000000,768.000000) scale(0.100000,-0.100000)"
fill="#000000" stroke="none">
<path d="M4588 6625 c-2 -1 -46 -6 -98 -9 -52 -4 -102 -9 -110 -11 -8 -2 -40
-6 -71 -10 -31 -3 -67 -8 -80 -10 -48 -10 -85 -16 -111 -20 -15 -2 -31 -6 -36
-9 -5 -3 -24 -8 -43 -11 -19 -3 -72 -17 -119 -31 -47 -14 -98 -29 -115 -33
-96 -24 -420 -170 -524 -236 -22 -14 -44 -25 -49 -25 -4 0 -19 -10 -32 -22
-14 -13 -26 -22 -28 -20 -3 3 -202 -135 -212 -147 -3 -4 -24 -22 -48 -40 -23
-18 -55 -45 -70 -60 -15 -14 -55 -51 -87 -82 -51 -48 -177 -181 -210 -221 -41
-50 -116 -150 -141 -188 -16 -25 -31 -47 -34 -50 -35 -31 -246 -442 -254 -494
-1 -6 -4 -15 -8 -21 -13 -21 -86 -266 -94 -315 -3 -19 -8 -38 -10 -41 -2 -4
-6 -24 -10 -45 -3 -22 -8 -41 -11 -44 -10 -10 -713 -6 -714 5 -1 5 -2 480 -3
1055 l-1 1045 -617 0 -618 1 0 -2688 0 -2688 63 -1 c34 -1 66 0 72 1 5 1 29 1
52 0 24 0 51 -1 61 -1 9 1 55 1 102 0 47 0 91 0 98 0 6 0 32 0 57 0 25 0 53 0
63 0 9 1 55 1 102 0 47 0 91 0 98 0 6 0 32 0 57 0 25 0 52 0 60 1 69 1 101 1
175 1 47 0 105 -1 130 -1 l45 -1 1 1093 0 1093 351 2 c393 3 356 10 369 -71 7
-46 9 -56 24 -121 6 -27 14 -61 16 -74 8 -41 101 -313 125 -366 12 -27 23 -52
24 -55 5 -22 60 -129 73 -144 10 -10 16 -21 14 -25 -5 -13 171 -292 190 -299
4 -2 8 -8 8 -13 0 -9 53 -78 122 -159 95 -112 377 -373 420 -389 6 -2 19 -11
29 -20 27 -25 42 -35 72 -50 15 -8 27 -18 27 -23 0 -4 4 -8 9 -8 6 0 30 -13
54 -30 25 -16 50 -30 56 -30 6 0 11 -4 11 -9 0 -5 6 -11 13 -13 6 -2 57 -26
112 -54 55 -29 105 -52 110 -53 6 -1 19 -8 30 -15 47 -30 366 -143 454 -161 9
-2 48 -11 86 -20 39 -9 79 -18 90 -20 11 -2 31 -6 45 -9 14 -3 45 -7 70 -10
25 -3 54 -7 65 -10 17 -3 74 -9 215 -22 57 -5 379 -4 450 1 59 4 118 10 207
20 58 7 292 50 323 60 10 3 27 8 37 10 10 2 50 13 88 25 39 12 75 22 82 24 7
1 16 5 19 9 4 4 13 7 20 7 7 0 25 5 41 12 15 6 33 12 39 13 27 6 202 85 314
143 113 57 354 207 390 243 8 8 24 21 36 29 114 79 325 293 457 464 12 15 27
33 32 40 18 20 120 179 163 252 56 97 182 358 185 384 0 3 13 41 30 85 16 44
31 89 33 100 2 11 10 43 19 70 40 135 72 318 91 515 14 144 7 532 -10 640 -3
14 -7 43 -10 65 -3 22 -8 51 -11 65 -2 14 -7 41 -9 60 -7 51 -62 267 -81 320
-9 25 -18 52 -20 61 -15 70 -205 477 -227 487 -5 2 -8 8 -8 14 0 14 -175 275
-200 298 -3 3 -30 34 -60 70 -69 81 -204 216 -295 296 -229 200 -486 352 -820
485 -92 36 -331 105 -432 124 -65 12 -141 24 -178 29 -22 3 -56 8 -75 11 -19
3 -57 8 -85 11 -57 5 -492 14 -497 9z m412 -1070 c30 -4 85 -15 155 -29 37 -8
180 -54 220 -71 259 -109 449 -260 660 -527 77 -96 236 -429 249 -518 1 -8 8
-35 15 -60 7 -25 14 -54 16 -65 2 -19 9 -58 21 -120 24 -133 24 -519 -1 -640
-3 -11 -7 -38 -10 -60 -8 -59 -49 -215 -72 -275 -3 -8 -7 -20 -8 -26 -5 -20
-77 -176 -108 -234 -39 -71 -135 -214 -178 -265 -72 -84 -134 -141 -277 -257
-37 -29 -204 -121 -285 -157 -120 -52 -270 -94 -391 -107 -28 -3 -62 -7 -76
-10 -40 -6 -249 -5 -320 2 -211 21 -418 85 -590 182 -109 62 -130 74 -149 90
-172 140 -235 201 -307 297 -25 33 -51 67 -59 76 -7 9 -35 54 -62 100 -42 73
-66 123 -128 264 -15 33 -64 192 -70 227 -3 13 -7 34 -10 48 -15 72 -18 89
-31 205 -9 87 -11 355 -2 361 4 3 3 15 -2 28 -5 13 -6 26 -3 29 3 3 7 22 9 43
3 37 9 75 20 144 20 119 94 352 136 428 10 18 18 39 18 46 0 8 3 16 8 18 4 2
16 21 27 42 26 52 119 191 157 236 47 54 199 208 226 227 13 10 38 30 55 45
18 15 37 28 44 28 6 0 13 4 15 9 4 13 175 111 193 111 7 0 15 4 17 8 2 6 143
62 171 68 4 1 8 2 10 4 1 1 9 3 17 5 8 2 24 6 35 9 62 16 168 36 215 42 30 3
56 8 58 9 5 5 335 -4 372 -10z"/>
</g>
</svg>
